<?xml version="1.0" encoding="UTF-8"?>
<svg id="Layer_1" xmlns="http://www.w3.org/2000/svg" version="1.1" viewBox="0 0 50 50">
  <!-- Generator: Adobe Illustrator 30.0.0, SVG Export Plug-In . SVG Version: 2.1.1 Build 123)  -->
  <g>
    <rect x="23.7" y="2.1" width="2.6" height="8.4"/>
    <rect x="23.7" y="39.5" width="2.6" height="8.4"/>
    <rect x="39.5" y="23.7" width="8.4" height="2.6"/>
    <rect x="2.1" y="23.7" width="8.4" height="2.6"/>
    <rect x="34" y="10.5" width="8.4" height="2.6" transform="translate(2.9 30.5) rotate(-45)"/>
    <rect x="7.5" y="36.9" width="8.4" height="2.6" transform="translate(-23.6 19.5) rotate(-45)"/>
    <rect x="36.9" y="34" width="2.6" height="8.4" transform="translate(-15.8 38.2) rotate(-45)"/>
    <rect x="10.5" y="7.6" width="2.6" height="8.4" transform="translate(-4.9 11.8) rotate(-45)"/>
  </g>
  <path d="M25,36.2c-6.2,0-11.2-5-11.2-11.2s5-11.2,11.2-11.2,11.2,5,11.2,11.2-5,11.2-11.2,11.2ZM25,16.4c-4.8,0-8.6,3.9-8.6,8.6s3.9,8.6,8.6,8.6,8.6-3.9,8.6-8.6-3.9-8.6-8.6-8.6Z"/>
  <path d="M25,36.2c-6.2,0-11.2-5-11.2-11.2s5-11.2,11.2-11.2,11.2,5,11.2,11.2-5,11.2-11.2,11.2ZM25,16.4c-4.8,0-8.6,3.9-8.6,8.6s3.9,8.6,8.6,8.6,8.6-3.9,8.6-8.6-3.9-8.6-8.6-8.6Z"/>
</svg>