<?xml version="1.0" encoding="UTF-8"?>
<svg id="Layer_1" xmlns="http://www.w3.org/2000/svg" version="1.1" viewBox="0 0 50 50">
  <!-- Generator: Adobe Illustrator 30.0.0, SVG Export Plug-In . SVG Version: 2.1.1 Build 123)  -->
  <path d="M25,13.8c-6.2,0-11.2,5-11.2,11.2s5,11.2,11.2,11.2,11.2-5,11.2-11.2-5-11.2-11.2-11.2ZM16.4,25c0-4.8,3.9-8.6,8.6-8.6v17.3c-4.8,0-8.6-3.9-8.6-8.6Z"/>
  <rect x="23.7" y="7.8" width="2.6" height="2.7"/>
  <rect x="23.7" y="39.5" width="2.6" height="2.6"/>
  <rect x="39.5" y="23.7" width="2.7" height="2.6"/>
  <rect x="7.8" y="23.7" width="2.7" height="2.6"/>
  <rect x="34.9" y="12.5" width="2.7" height="2.6" transform="translate(.9 29.7) rotate(-45.2)"/>
  <rect x="12.5" y="34.9" width="2.6" height="2.6" transform="translate(-21.6 20.5) rotate(-45.2)"/>
  <rect x="34.9" y="34.9" width="2.6" height="2.6" transform="translate(-15 36.2) rotate(-45)"/>
  <rect x="12.5" y="12.5" width="2.6" height="2.7" transform="translate(-5.7 13.8) rotate(-44.9)"/>
</svg>